<svg version="1.1" id="Layer_1" xmlns="http://www.w3.org/2000/svg" xmlns:xlink="http://www.w3.org/1999/xlink" x="0px" y="0px" fill="rgb(172, 170, 170)"  viewBox="0 0 512 512" style="enable-background:new 0 0 512 512;" xml:space="preserve">
<g>
	<path d="M491.5,0h-471C9.2,0,0,9.2,0,20.5v471C0,502.8,9.2,512,20.5,512h471c11.3,0,20.5-9.2,20.5-20.5v-471   C512,9.2,502.8,0,491.5,0z M378.9,271.4c0,2.8-2.3,5.1-5.1,5.1h-97.3v97.3c0,2.8-2.3,5.1-5.1,5.1h-30.7c-2.8,0-5.1-2.3-5.1-5.1   v-97.3h-97.3c-2.8,0-5.1-2.3-5.1-5.1v-30.7c0-2.8,2.3-5.1,5.1-5.1h97.3v-97.3c0-2.8,2.3-5.1,5.1-5.1h30.7c2.8,0,5.1,2.3,5.1,5.1   v97.3h97.3c2.8,0,5.1,2.3,5.1,5.1V271.4z"/>
</g>
</svg>